<svg xmlns="http://www.w3.org/2000/svg" viewBox="0 0 600 450" role="img" aria-label="Cities">
  <rect width="600" height="450" fill="#FFEF00"></rect>
  <g fill="#000">
    <rect x="120" y="220" width="80" height="180"></rect>
    <rect x="220" y="160" width="100" height="240"></rect>
    <rect x="340" y="200" width="70" height="200"></rect>
    <rect x="430" y="120" width="60" height="280"></rect>
  </g>
  <g fill="#FFEF00">
    <rect x="135" y="240" width="10" height="10"></rect><rect x="160" y="240" width="10" height="10"></rect>
    <rect x="135" y="270" width="10" height="10"></rect><rect x="160" y="300" width="10" height="10"></rect>
    <rect x="240" y="180" width="10" height="10"></rect><rect x="265" y="180" width="10" height="10"></rect>
    <rect x="290" y="180" width="10" height="10"></rect><rect x="240" y="220" width="10" height="10"></rect>
    <rect x="265" y="240" width="10" height="10"></rect><rect x="290" y="280" width="10" height="10"></rect>
    <rect x="355" y="220" width="10" height="10"></rect><rect x="380" y="250" width="10" height="10"></rect>
    <rect x="445" y="140" width="10" height="10"></rect><rect x="465" y="170" width="10" height="10"></rect>
    <rect x="445" y="200" width="10" height="10"></rect>
  </g>
</svg>