<svg xmlns="http://www.w3.org/2000/svg" viewBox="0 0 800 600" role="img" aria-label="Rider illustration">
  <defs>
    <linearGradient id="bg-r" x1="0" y1="0" x2="1" y2="1">
      <stop offset="0" stop-color="#FFEF00"></stop>
      <stop offset="1" stop-color="#F0C400"></stop>
    </linearGradient>
  </defs>
  <rect width="800" height="600" fill="url(#bg-r)"></rect>
  
  <rect x="40" y="60" width="320" height="480" rx="40" fill="#000" opacity="0.85"></rect>
  <rect x="70" y="90" width="260" height="420" rx="24" fill="#FFEF00" opacity="0.4"></rect>
  
  <g fill="#000" opacity="0.5">
    <rect x="80" y="280" width="48" height="220"></rect>
    <rect x="138" y="220" width="60" height="280"></rect>
    <rect x="208" y="320" width="40" height="180"></rect>
    <rect x="258" y="180" width="64" height="320"></rect>
    
  </g>
  <g fill="#FFEF00" opacity="0.85">
    <rect x="92" y="300" width="6" height="6"></rect>
    <rect x="108" y="300" width="6" height="6"></rect>
    <rect x="92" y="320" width="6" height="6"></rect>
    <rect x="108" y="340" width="6" height="6"></rect>
    <rect x="150" y="240" width="6" height="6"></rect>
    <rect x="170" y="240" width="6" height="6"></rect>
    <rect x="150" y="270" width="6" height="6"></rect>
    <rect x="270" y="200" width="6" height="6"></rect>
    <rect x="290" y="200" width="6" height="6"></rect>
    <rect x="270" y="230" width="6" height="6"></rect>
    <rect x="290" y="260" width="6" height="6"></rect>
  </g>
  
  <g transform="translate(440 80)">
    
    <path d="M 0 520 L 0 360 Q 20 260 140 240 L 240 240 Q 360 260 360 380 L 360 520 Z" fill="#000"></path>
    
    <circle cx="180" cy="170" r="110" fill="#000"></circle>
    
    <rect x="220" y="280" width="70" height="120" rx="12" fill="#FFEF00"></rect>
    <rect x="232" y="296" width="46" height="84" rx="3" fill="#000"></rect>
    
    <circle cx="248" cy="320" r="3" fill="#FFEF00"></circle>
    <circle cx="262" cy="320" r="3" fill="#FFEF00"></circle>
    <path d="M 244 340 Q 255 350 266 340" stroke="#FFEF00" stroke-width="3" fill="none" stroke-linecap="round"></path>
    
    <circle cx="92" cy="195" r="8" fill="#FFEF00"></circle>
  </g>
</svg>