<?xml version="1.0" encoding="UTF-8"?>
<svg xmlns="http://www.w3.org/2000/svg" viewBox="0 0 1200 360" width="1200" height="360">
  <rect width="1200" height="360" fill="#FFFFFF"></rect>
  <g fill="#000000" color="#000000">
    <g transform="translate(140 60) scale(1.2)">
  <path fill-rule="evenodd" d="M 100 6 A 94 94 0 1 1 99.99 6 Z M 100 22 A 78 78 0 1 0 100.01 22 Z"></path>
  <ellipse cx="78" cy="86" rx="10" ry="17"></ellipse>
  <ellipse cx="122" cy="86" rx="10" ry="17"></ellipse>
  <path d="M 60 122 Q 100 162 140 122" stroke-width="14" stroke-linecap="round" fill="none" stroke="currentColor"></path>
</g>
    <g transform="translate(430 247.89)"><path d="M52.96 2.15L52.96 2.15Q38.99 2.15 27.45-2.85Q15.90-7.84 9.13-17.83Q2.36-27.82 2.36-42.54L2.36-42.54L2.36-45.01L31.15-45.01L31.15-42.54Q31.15-36.09 33.89-31.37Q36.63-26.64 41.57-24.17Q46.51-21.70 52.96-21.70L52.96-21.70Q59.94-21.70 64.83-24.60Q69.72-27.50 72.24-33.30Q74.77-39.10 74.77-47.48L74.77-47.48L74.77-160.06L103.45-160.06L103.45-47.48Q103.45-32.01 97.27-20.89Q91.09-9.78 79.76-3.81Q68.43 2.15 52.96 2.15ZM170.08 2.36L170.08 2.36Q152.47 2.36 139.58-5.37Q126.68-13.11 119.65-27.07Q112.61-41.04 112.61-59.51L112.61-59.51Q112.61-78.10 119.65-92.11Q126.68-106.13 139.58-113.87Q152.47-121.60 170.08-121.60L170.08-121.60Q187.70-121.60 200.59-113.87Q213.48-106.13 220.57-92.11Q227.66-78.10 227.66-59.51L227.66-59.51Q227.66-41.04 220.57-27.07Q213.48-13.11 200.59-5.37Q187.70 2.36 170.08 2.36ZM170.08-20.41L170.08-20.41Q179.86-20.41 186.20-25.62Q192.53-30.83 195.70-39.75Q198.87-48.66 198.87-59.51L198.87-59.51Q198.87-70.58 195.70-79.49Q192.53-88.41 186.20-93.62Q179.86-98.83 170.08-98.83L170.08-98.83Q160.52-98.83 154.08-93.62Q147.63-88.41 144.46-79.49Q141.29-70.58 141.29-59.51L141.29-59.51Q141.29-48.66 144.46-39.75Q147.63-30.83 154.08-25.62Q160.52-20.41 170.08-20.41ZM253.15 44.90L253.15 44.90Q247.35 45.01 242.47 44.10Q237.58 43.18 234.57 42.00L234.57 42.00L241.23 19.98L242.63 20.41Q251.22 22.67 257.29 20.73Q263.36 18.80 267.01 9.02L267.01 9.02L269.38 2.58L225.98-120.10L255.95-120.10L283.56-29.33L284.84-29.33L312.56-120.10L342.74-120.10L294.62 14.50Q291.29 24.06 285.81 30.88Q280.33 37.71 272.28 41.30Q264.22 44.90 253.15 44.90ZM374.58 0L346.32 0L346.32-120.10L373.72-120.10L373.72-99.90L375.01-99.90Q378.23-110.43 386.28-116.07Q394.34-121.71 404.65-121.71L404.65-121.71Q406.91-121.71 409.86-121.49Q412.82-121.28 414.75-120.96L414.75-120.96L414.75-94.96Q412.93-95.61 409.06-96.04Q405.19-96.46 401.65-96.46L401.65-96.46Q393.80-96.46 387.68-93.13Q381.56-89.80 378.07-84.00Q374.58-78.20 374.58-70.47L374.58-70.47L374.58 0ZM445.94 0L417.69 0L417.69-120.10L445.94-120.10L445.94 0ZM431.87-136.96L431.87-136.96Q425.10-136.96 420.26-141.47Q415.43-145.99 415.43-152.32L415.43-152.32Q415.43-158.77 420.26-163.28Q425.10-167.79 431.87-167.79L431.87-167.79Q438.53-167.79 443.36-163.28Q448.19-158.77 448.19-152.43L448.19-152.43Q448.19-145.99 443.36-141.47Q438.53-136.96 431.87-136.96ZM503.34 2.15L503.34 2.15Q489.26 2.15 478.04-5.10Q466.81-12.35 460.37-26.21Q453.92-40.07 453.92-59.83L453.92-59.83Q453.92-79.92 460.53-93.67Q467.13-107.42 478.31-114.51Q489.48-121.60 503.34-121.60L503.34-121.60Q513.97-121.60 520.74-118.06Q527.51-114.51 531.53-109.52Q535.56-104.52 537.71-100.22L537.71-100.22L538.89-100.22L538.89-160.06L567.04-160.06L567.04 0L539.43 0L539.43-19.01L537.71-19.01Q535.46-14.61 531.37-9.72Q527.29-4.83 520.52-1.34Q513.76 2.15 503.34 2.15ZM511.18-21.05L511.18-21.05Q520.20-21.05 526.49-25.94Q532.77-30.83 536.10-39.58Q539.43-48.34 539.43-59.94L539.43-59.94Q539.43-71.65 536.15-80.30Q532.88-88.95 526.59-93.67Q520.31-98.40 511.18-98.40L511.18-98.40Q501.83-98.40 495.49-93.46Q489.16-88.52 485.99-79.81Q482.82-71.11 482.82-59.94L482.82-59.94Q482.82-48.77 486.04-39.96Q489.26-31.15 495.55-26.10Q501.83-21.05 511.18-21.05ZM633.46 2.36L633.46 2.36Q615.41 2.36 602.31-5.21Q589.20-12.78 582.16-26.64Q575.13-40.50 575.13-59.30L575.13-59.30Q575.13-77.88 582.11-91.90Q589.09-105.92 601.77-113.76Q614.44-121.60 631.63-121.60L631.63-121.60Q642.70-121.60 652.63-118.06Q662.57-114.51 670.25-107.10Q677.93-99.69 682.34-88.25Q686.74-76.81 686.74-61.02L686.74-61.02L686.74-52.21L588.34-52.21L588.34-71.22L672.67-71.22L659.45-65.63Q659.45-75.84 656.34-83.41Q653.22-90.99 647.10-95.28Q640.98-99.58 631.85-99.58L631.85-99.58Q622.72-99.58 616.27-95.28Q609.83-90.99 606.50-83.74Q603.17-76.48 603.17-67.57L603.17-67.57L603.17-54.36Q603.17-43.40 606.98-35.61Q610.79-27.82 617.72-23.74Q624.65-19.66 633.89-19.66L633.89-19.66Q639.90-19.66 644.90-21.38Q649.89-23.10 653.49-26.59Q657.09-30.08 659.02-35.23L659.02-35.23L685.45-32.12Q682.87-21.70 675.94-13.91Q669.01-6.12 658.22-1.88Q647.42 2.36 633.46 2.36Z"></path></g>
  </g>
</svg>